<mxfile host="app.diagrams.net" agent="Mozilla/5.0 (X11; Linux x86_64) AppleWebKit/537.36 (KHTML, like Gecko) Chrome/133.0.0.0 Safari/537.36 OPR/118.0.0.0" version="27.0.8">
  <diagram name="Page-1" id="OiQM4WDgwtNsMnTPWwNN">
    <mxGraphModel dx="930" dy="739" grid="1" gridSize="10" guides="1" tooltips="1" connect="1" arrows="1" fold="1" page="1" pageScale="1" pageWidth="850" pageHeight="1100" math="0" shadow="0">
      <root>
        <mxCell id="0" />
        <mxCell id="1" parent="0" />
        <mxCell id="raZ2XwU40IR1KIGuw5wc-13" value="" style="rounded=1;whiteSpace=wrap;html=1;strokeWidth=2;fillWeight=4;hachureGap=8;hachureAngle=45;fillColor=#1ba1e2;glass=0;opacity=50;" parent="1" vertex="1">
          <mxGeometry x="30" y="30" width="340" height="210" as="geometry" />
        </mxCell>
        <mxCell id="raZ2XwU40IR1KIGuw5wc-1" value="Attacker" style="rounded=1;whiteSpace=wrap;html=1;" parent="1" vertex="1">
          <mxGeometry x="50" y="42.5" width="80" height="80" as="geometry" />
        </mxCell>
        <mxCell id="raZ2XwU40IR1KIGuw5wc-2" value="Camera" style="rounded=1;whiteSpace=wrap;html=1;" parent="1" vertex="1">
          <mxGeometry x="160" y="42.5" width="80" height="80" as="geometry" />
        </mxCell>
        <mxCell id="raZ2XwU40IR1KIGuw5wc-5" value="&lt;div&gt;IoT controller dashboard&lt;/div&gt;" style="rounded=1;whiteSpace=wrap;html=1;" parent="1" vertex="1">
          <mxGeometry x="270" y="42.5" width="80" height="80" as="geometry" />
        </mxCell>
        <mxCell id="raZ2XwU40IR1KIGuw5wc-7" value="Robot" style="rounded=1;whiteSpace=wrap;html=1;dashed=1;dashPattern=8 8;" parent="1" vertex="1">
          <mxGeometry x="50" y="147.5" width="80" height="80" as="geometry" />
        </mxCell>
        <mxCell id="raZ2XwU40IR1KIGuw5wc-30" value="" style="rounded=1;whiteSpace=wrap;html=1;fillColor=none;strokeWidth=2;" parent="1" vertex="1">
          <mxGeometry x="400" y="40" width="150" height="80" as="geometry" />
        </mxCell>
        <mxCell id="raZ2XwU40IR1KIGuw5wc-18" value="" style="rounded=1;whiteSpace=wrap;html=1;strokeWidth=2;fillWeight=4;hachureGap=8;hachureAngle=45;fillColor=#1ba1e2;" parent="1" vertex="1">
          <mxGeometry x="410" y="52.5" width="20" height="20" as="geometry" />
        </mxCell>
        <mxCell id="raZ2XwU40IR1KIGuw5wc-31" value="Internal network" style="text;html=1;align=left;verticalAlign=middle;whiteSpace=wrap;rounded=0;" parent="1" vertex="1">
          <mxGeometry x="440" y="47.5" width="100" height="30" as="geometry" />
        </mxCell>
        <mxCell id="p3BkjcYXmnH80hasmFMF-3" value="" style="rounded=1;whiteSpace=wrap;html=1;dashed=1;dashPattern=8 8;" parent="1" vertex="1">
          <mxGeometry x="410" y="90" width="20" height="20" as="geometry" />
        </mxCell>
        <mxCell id="p3BkjcYXmnH80hasmFMF-4" value="Optional" style="text;html=1;align=left;verticalAlign=middle;whiteSpace=wrap;rounded=0;" parent="1" vertex="1">
          <mxGeometry x="440" y="85" width="50" height="30" as="geometry" />
        </mxCell>
        <mxCell id="7JNvDpT5djCB0ZB8o4mu-1" value="Lights" style="rounded=1;whiteSpace=wrap;html=1;dashed=1;dashPattern=8 8;" parent="1" vertex="1">
          <mxGeometry x="160" y="147.5" width="80" height="80" as="geometry" />
        </mxCell>
      </root>
    </mxGraphModel>
  </diagram>
</mxfile>
